<svg width="16" height="24" viewBox="0 0 16 24" fill="none" xmlns="http://www.w3.org/2000/svg">
  <path d="M12.075 11.416V4.383C12.075 1.8 10.41 0 8.005 0c-2.403 0-4.07 1.8-4.07 4.383v7.033c0 2.571 1.667 4.383 4.07 4.383s4.07-1.812 4.07-4.383m-1.688 0c0 1.655-.95 2.717-2.381 2.717-1.432 0-2.382-1.062-2.382-2.717V4.383c0-1.655.95-2.717 2.382-2.717 1.43 0 2.381 1.062 2.381 2.717zm-7.38 10.823a.84.84 0 0 0-.838.85c0 .47.37.838.839.838h9.996a.83.83 0 0 0 .838-.838.84.84 0 0 0-.838-.85h-4.16v-2.605C13.115 19.276 16 16.212 16 11.818v-2.27a.83.83 0 0 0-.839-.838.84.84 0 0 0-.85.839v2.202c0 3.813-2.482 6.34-6.305 6.34-3.824 0-6.318-2.527-6.318-6.34V9.55a.83.83 0 0 0-.838-.84.84.84 0 0 0-.85.839v2.27c0 4.393 2.896 7.457 7.156 7.815v2.605z" fill="#7000FF"/>
</svg>
